# xmcd CD database file
#
# Track frame offsets:
#	150
#	30975
#	61575
#	97800
#	136425
#	167775
#	200625
#	230025
#
# Disc length: 3483 seconds
#
# Revision: 0
# Processed by: cddbd v1.5.1PL0 Copyright (c) Steve Scherf et al.
# Submitted via: CDex 1.51
#
DISCID=620d9908
DTITLE=Pete Malinverni - This Time
DYEAR=1900
DGENRE=Jazz
TTITLE0=Line for Nichols
TTITLE1=Psalm 100
TTITLE2=Beautiful Love
TTITLE3=This Time
TTITLE4=Shadow of Your Smile
TTITLE5=How Deep Is the Ocean?
TTITLE6=Deep River
TTITLE7=Good Question
EXTD=
EXTT0=
EXTT1=
EXTT2=
EXTT3=
EXTT4=
EXTT5=
EXTT6=
EXTT7=
PLAYORDER=
